<?xml version="1.0" standalone="no"?>
<!DOCTYPE svg PUBLIC "-//W3C//DTD SVG 20010904//EN"
 "http://www.w3.org/TR/2001/REC-SVG-20010904/DTD/svg10.dtd">
<svg version="1.0" xmlns="http://www.w3.org/2000/svg"
 width="366.000000pt" height="348.000000pt" viewBox="0 0 366.000000 348.000000"
 preserveAspectRatio="xMidYMid meet">

<g transform="translate(0.000000,348.000000) scale(0.100000,-0.100000)"
fill="#000000" stroke="none">
<path d="M1375 2914 c-66 -25 -124 -49 -128 -54 -26 -25 26 -70 82 -70 15 0
36 -9 45 -19 10 -11 55 -112 100 -224 93 -230 144 -324 210 -385 40 -36 52
-42 91 -42 54 0 57 11 10 40 -95 59 -116 167 -45 235 16 16 30 32 30 37 0 7
-126 262 -179 363 -11 22 -33 68 -47 103 -15 34 -32 62 -38 61 -6 0 -65 -21
-131 -45z"/>
<path d="M2501 2749 c-16 -26 -21 -51 -21 -104 l0 -71 -147 -27 c-222 -42
-537 -122 -566 -143 -57 -41 -70 -119 -32 -178 21 -31 262 -187 443 -286 l132
-72 35 26 c138 105 104 227 -90 323 -61 31 -162 66 -223 78 -18 4 -32 8 -30
10 2 2 113 20 248 39 282 42 331 52 345 70 6 7 27 18 47 25 l37 12 -28 62
c-16 34 -47 105 -71 157 -23 52 -46 99 -51 104 -4 5 -17 -7 -28 -25z"/>
<path d="M1211 2616 c-17 -24 -31 -54 -31 -65 0 -11 36 -66 80 -123 214 -277
377 -568 404 -718 l6 -36 -52 4 c-29 3 -81 5 -115 5 -148 -1 -249 -111 -181
-198 29 -37 76 -55 146 -55 68 0 120 15 143 40 8 10 25 20 37 24 12 3 31 8 41
12 17 4 21 -1 27 -33 3 -21 21 -90 39 -153 24 -82 45 -200 74 -414 22 -164 39
-302 36 -306 -3 -4 -22 -11 -42 -15 -39 -7 -93 -31 -93 -41 0 -7 215 4 268 13
36 6 32 19 -8 25 l-25 3 -3 380 c-1 209 0 389 2 400 3 11 22 39 43 61 45 49
307 404 301 409 -1 2 -74 44 -161 94 l-159 91 -104 -54 -105 -53 -23 31 c-13
17 -56 78 -97 136 -87 124 -185 229 -304 325 l-86 70 3 90 c3 77 1 90 -14 93
-10 2 -28 -13 -47 -42z"/>
</g>
</svg>
