<?xml version="1.0" standalone="no"?>
<!DOCTYPE svg PUBLIC "-//W3C//DTD SVG 20010904//EN"
 "http://www.w3.org/TR/2001/REC-SVG-20010904/DTD/svg10.dtd">
<svg version="1.0" xmlns="http://www.w3.org/2000/svg"
 width="348.000000pt" height="348.000000pt" viewBox="0 0 348.000000 348.000000"
 preserveAspectRatio="xMidYMid meet">

<g transform="translate(0.000000,348.000000) scale(0.100000,-0.100000)"
fill="#000000" stroke="none">
<path d="M1623 2096 c-89 -29 -173 -104 -219 -196 -39 -78 -46 -209 -14 -293
29 -76 112 -167 188 -204 51 -25 67 -28 162 -28 94 0 111 3 161 28 67 32 152
119 180 182 65 146 30 315 -88 426 -75 71 -128 92 -238 96 -57 2 -105 -2 -132
-11z"/>
</g>
</svg>
